<?xml version="1.0" encoding="utf-8"?>
<!-- Generator: Adobe Illustrator 22.1.0, SVG Export Plug-In . SVG Version: 6.00 Build 0)  -->
<svg version="1.1" id="Layer_1" xmlns="http://www.w3.org/2000/svg" xmlns:xlink="http://www.w3.org/1999/xlink" x="0px" y="0px"
	 viewBox="0 0 236.6 236.6" style="enable-background:new 0 0 236.6 236.6;" xml:space="preserve">
<style type="text/css">
	.st0{fill:#F9CC8A;}
	.st1{fill:#F2655A;}
	.st2{fill:#C0E5E0;}
	.st3{fill:#FFFFFF;}
	.st4{fill:#8B5E3C;}
	.st5{fill:#FBD015;}
	.st6{fill:#F69D98;}
	.st7{fill:none;}
</style>
<path class="st0" d="M234.5,96.2C222.3,32,160.4-10.1,96.2,2.1C32.1,14.3-10.1,76.3,2.1,140.4c12.2,64.2,74.1,106.3,138.3,94.1
	S246.7,160.4,234.5,96.2z M128.4,163.1c-24,4.6-47.2-11.2-51.8-35.2s11.2-47.2,35.2-51.8s47.2,11.2,51.8,35.2
	S152.5,158.5,128.4,163.1z"/>
<path class="st4" d="M226.4,105.5c-1.6-13.3-14.2-16.6-21.5-27.2s14.5-30.5-10.1-36.4S173,40.3,164,35.5s-2.2-21.2-12.9-25.1
	s-19.5,7.3-27.2,8.5s-21.5-11.3-30.4-8.4c-8.9,2.8-8,15-15.1,19.1C71.3,33.8,56.5,28.8,46,37s-0.9,17.2-6.4,26.8s-19.9-1-24.1,13
	c-4.2,14.1,5.4,25.8,4.5,34.1s-13.1,20.5-9.1,35.6c4,15.2,14.7,9.1,20.9,16.3s-2.4,17.6,2.8,27.6s22.9,6.7,28.9,10.8
	c5.9,4.1,16.8,24.3,26.2,25.5s11.4-8.1,21.2-9.1s14.9,11.7,31.6,7.3c16.7-4.4,12.6-16.3,20.4-20.9c7.8-4.6,15.1,4.4,25-3.8
	s2-13.9,7.9-22.4c6-8.5,20.9-8.1,25.3-20.1c4.5-12-10-16.7-8.8-29.1C213.6,116.3,228,118.8,226.4,105.5z M128.7,163
	c-24,4.6-47.2-11.2-51.8-35.2S88.1,80.6,112.1,76s47.2,11.2,51.8,35.2S152.7,158.4,128.7,163z"/>
<path class="st2" d="M196.8,83.2c-4.1,3.4-8.2,6.7-12.4,10.1c-3,2.5,1,7.1,4,4.6c4.1-3.4,8.2-6.7,12.4-10.1
	C203.8,85.3,199.9,80.7,196.8,83.2L196.8,83.2z"/>
<path class="st2" d="M127.3,189.1c-2.2-4.9-4.3-9.7-6.5-14.6c-1.6-3.6-7.1-0.9-5.5,2.6c2.2,4.9,4.3,9.7,6.5,14.6
	C123.5,195.3,128.9,192.7,127.3,189.1L127.3,189.1z"/>
<path class="st2" d="M170.8,80.7c-4.7-2.4-9.5-4.8-14.2-7.2c-3.5-1.8-6.1,3.7-2.6,5.5c4.7,2.4,9.5,4.8,14.2,7.2
	C171.7,87.9,174.2,82.4,170.8,80.7L170.8,80.7z"/>
<path class="st2" d="M97.4,33.1c-4.9,2.1-9.7,4.3-14.6,6.4c-3.6,1.6-1,7.1,2.6,5.5c4.9-2.1,9.7-4.3,14.6-6.4
	C103.6,37,100.9,31.6,97.4,33.1L97.4,33.1z"/>
<path class="st2" d="M53.4,79.4c-4.1,3.4-8.2,6.7-12.4,10.1c-3,2.5,1,7.1,4,4.6c4.1-3.4,8.2-6.7,12.4-10.1
	C60.4,81.5,56.4,77,53.4,79.4L53.4,79.4z"/>
<path class="st2" d="M48.9,154c0.9,5.2,1.7,10.5,2.6,15.7c0.6,3.9,6.6,2.7,6-1.2c-0.9-5.2-1.7-10.5-2.6-15.7
	C54.2,149,48.2,150.2,48.9,154L48.9,154z"/>
<path class="st3" d="M188.2,56.4c-1.8,5-3.6,10-5.5,15c-1.3,3.7,4.4,5.6,5.8,1.9c1.8-5,3.6-10,5.5-15
	C195.4,54.7,189.6,52.8,188.2,56.4L188.2,56.4z"/>
<path class="st3" d="M87.9,168.5c1.2,5.2,2.5,10.3,3.7,15.5c0.9,3.8,6.8,2.2,5.9-1.6c-1.2-5.2-2.5-10.3-3.7-15.5
	C92.9,163.1,87,164.7,87.9,168.5L87.9,168.5z"/>
<path class="st3" d="M124.3,50c1.5,5.1,3.1,10.2,4.6,15.3c1.1,3.7,6.9,1.8,5.8-1.9c-1.5-5.1-3.1-10.2-4.6-15.3
	C128.9,44.3,123.2,46.2,124.3,50L124.3,50z"/>
<path class="st3" d="M42.6,128.8c-5,1.9-9.9,3.9-14.9,5.8c-3.6,1.4-1.2,7,2.4,5.6c5-1.9,9.9-3.9,14.9-5.8
	C48.7,133,46.3,127.4,42.6,128.8L42.6,128.8z"/>
<path class="st3" d="M211.7,150.4c-5-1.8-10-3.6-15-5.4c-3.7-1.3-5.5,4.5-1.9,5.8c5,1.8,10,3.6,15,5.4
	C213.5,157.5,215.3,151.7,211.7,150.4L211.7,150.4z"/>
<path class="st3" d="M154.1,191.6c-4.8,2.4-9.5,4.8-14.3,7.2c-3.5,1.8-0.6,7.1,2.9,5.3c4.8-2.4,9.5-4.8,14.3-7.2
	C160.5,195.1,157.6,189.8,154.1,191.6L154.1,191.6z"/>
<path class="st6" d="M172.3,118.5c3.2,4.3,6.3,8.6,9.5,12.8c2.3,3.1,7.1-0.6,4.8-3.8c-3.2-4.3-6.3-8.6-9.5-12.8
	C174.7,111.6,169.9,115.3,172.3,118.5L172.3,118.5z"/>
<path class="st6" d="M54.3,104.9c3.1,4.3,6.3,8.6,9.4,12.9c2.3,3.2,7.1-0.6,4.8-3.7c-3.1-4.3-6.3-8.6-9.4-12.9
	C56.8,98,52,101.7,54.3,104.9L54.3,104.9z"/>
<path class="st6" d="M141.3,27c-0.8,5.3-1.7,10.5-2.5,15.8c-0.6,3.9,5.4,4.6,6,0.8c0.8-5.3,1.7-10.5,2.5-15.8
	C147.9,23.9,141.9,23.1,141.3,27L141.3,27z"/>
<path class="st6" d="M81.7,61.9c4.2,3.3,8.3,6.6,12.5,9.9c3.1,2.4,6.7-2.4,3.6-4.9c-4.2-3.3-8.3-6.6-12.5-9.9
	C82.3,54.6,78.7,59.5,81.7,61.9L81.7,61.9z"/>
<path class="st6" d="M67.8,172.2c-2.8,4.5-5.5,9.1-8.3,13.6c-2,3.3,3.2,6.3,5.3,3c2.8-4.5,5.5-9.1,8.3-13.6
	C75.2,171.8,69.9,168.8,67.8,172.2L67.8,172.2z"/>
<path class="st5" d="M191.3,116.9c3.7,3.8,7.4,7.7,11.1,11.5c2.7,2.8,7-1.5,4.2-4.3c-3.7-3.8-7.4-7.7-11.1-11.5
	C192.8,109.7,188.6,114.1,191.3,116.9L191.3,116.9z"/>
<path class="st5" d="M62.6,141.3c2.2,4.8,4.4,9.7,6.6,14.5c1.6,3.6,7.1,0.9,5.5-2.7c-2.2-4.8-4.4-9.7-6.6-14.5
	C66.4,135.1,61,137.8,62.6,141.3L62.6,141.3z"/>
<path class="st5" d="M84.6,196.2c0,5.3,0.1,10.6,0.1,16c0,3.9,6.1,3.7,6.1-0.2c0-5.3-0.1-10.6-0.1-16
	C90.6,192.1,84.5,192.3,84.6,196.2L84.6,196.2z"/>
<path class="st5" d="M56.1,52.9c2.2,4.8,4.4,9.7,6.6,14.5c1.6,3.6,7.1,0.9,5.5-2.7c-2.2-4.8-4.4-9.7-6.6-14.5
	C59.9,46.6,54.5,49.3,56.1,52.9L56.1,52.9z"/>
<path class="st3" d="M76.6,78.5c-4.2,3.2-8.5,6.4-12.7,9.6c-3.1,2.4,0.7,7.1,3.8,4.7c4.2-3.2,8.5-6.4,12.7-9.6
	C83.6,80.8,79.8,76.1,76.6,78.5L76.6,78.5z"/>
<path class="st5" d="M154.6,57.7c5,1.9,9.9,3.8,14.9,5.7c3.6,1.4,5.7-4.3,2-5.7c-5-1.9-9.9-3.8-14.9-5.7
	C152.9,50.5,150.9,56.3,154.6,57.7L154.6,57.7z"/>
<path class="st5" d="M112.4,26.6c-1.6,5.1-3.2,10.2-4.8,15.2c-1.2,3.7,4.7,5.4,5.9,1.6c1.6-5.1,3.2-10.2,4.8-15.2
	C119.4,24.5,113.6,22.8,112.4,26.6L112.4,26.6z"/>
<path class="st5" d="M27.4,101c1.8,5,3.6,10,5.3,15c1.3,3.7,7,1.5,5.7-2.2c-1.8-5-3.6-10-5.3-15C31.7,95.1,26.1,97.3,27.4,101
	L27.4,101z"/>
<path class="st6" d="M105.4,199c3.6,3.9,7.3,7.8,10.9,11.7c2.7,2.9,7-1.4,4.3-4.3c-3.6-3.9-7.3-7.8-10.9-11.7
	C107,191.8,102.7,196.1,105.4,199L105.4,199z"/>
<path class="st5" d="M179.2,179.4c-4.1,3.4-8.2,6.8-12.2,10.2c-3,2.5,1,7,4,4.5c4.1-3.4,8.2-6.8,12.2-10.2
	C186.2,181.4,182.2,176.9,179.2,179.4L179.2,179.4z"/>
<path class="st6" d="M153.4,173.4c-5.3-0.4-10.6-0.8-15.9-1.1c-3.9-0.3-4.1,5.8-0.2,6.1c5.3,0.4,10.6,0.8,15.9,1.1
	C157,179.8,157.3,173.7,153.4,173.4L153.4,173.4z"/>
<path class="st2" d="M169.5,149c-1.9,5-3.8,10-5.6,14.9c-1.4,3.7,4.4,5.6,5.7,2c1.9-5,3.8-10,5.6-14.9
	C176.6,147.3,170.8,145.3,169.5,149L169.5,149z"/>
</svg>
