<?xml version="1.0" encoding="utf-8"?>
<!-- Generator: Adobe Illustrator 22.1.0, SVG Export Plug-In . SVG Version: 6.00 Build 0)  -->
<svg version="1.1" id="Layer_1" xmlns="http://www.w3.org/2000/svg" xmlns:xlink="http://www.w3.org/1999/xlink" x="0px" y="0px"
	 viewBox="0 0 236.5 236.6" style="enable-background:new 0 0 236.5 236.6;" xml:space="preserve">
<style type="text/css">
	.st0{fill:#F9CC8A;}
	.st1{fill:#F2655A;}
	.st2{fill:#C0E5E0;}
	.st3{fill:#FFFFFF;}
	.st4{fill:#8B5E3C;}
	.st5{fill:#FBD015;}
	.st6{fill:#F69D98;}
	.st7{fill:none;}
</style>
<path class="st0" d="M1.9,97.4c-11.5,64.3,31.3,125.8,95.5,137.3c64.3,11.5,125.8-31.3,137.3-95.5c11.5-64.3-31.3-125.8-95.5-137.3
	C74.9-9.7,13.4,33.1,1.9,97.4z M161.9,126.1c-4.3,24.1-27.3,40.1-51.4,35.8s-40.1-27.3-35.8-51.4s27.3-40.1,51.4-35.8
	C150.2,79,166.2,102,161.9,126.1z"/>
<g>
	<path class="st1" d="M11.6,100.3c-3.8,27.5,7.8,55.3,23.7,78.1c16.4,22.8,37,40.5,63.5,47.4c27.4,7.1,56.1,1.6,78.4-14.3
		c22.6-15.8,38.7-42.1,47.5-73.1s1-61.6-15-84.3c-16.3-22.9-40.7-37.8-72.2-41.3c-32.3-3.6-65.1,4.5-87.3,20.4
		C27.5,49.2,15.4,72.7,11.6,100.3z M163.9,127.1c-3.8,28.7-26.6,47.5-50.9,42.2c-24.2-5.3-42.5-31.6-41.1-58.6s24.3-45.9,51-42.1
		C149.4,72.2,167.7,98.4,163.9,127.1z"/>
</g>
<g>
	<path class="st1" d="M148.8,150.4c-2.9,2.8-6.2,5.1-9.8,7l33.8,45L148.8,150.4z"/>
	<path class="st1" d="M76,105.5c1.5-5,3.8-9.5,6.8-13.5L49.5,47.6L76,105.5z"/>
	<path class="st4" d="M147.1,8.6c-2.1,1.3-0.3,4.7-0.3,4.7l71.3,138.8c0.3,0.6,0.6,1.2,0.9,1.8c-0.4-0.5-0.9-0.9-1.3-1.5L103,20.7
		c-6.2-7.1-9.7-9.2-12.5-7.4c-2.8,1.8-2.4,5.9,1.6,14.5l21.5,46.5c2-0.2,4.1-0.3,6.2-0.2L97.3,25.4c-0.8-1.7-1.4-3.1-1.8-4.3
		c0.9,0.8,1.9,1.9,3.2,3.4l114.6,131.7c6.4,7.4,9.6,9.3,12.3,7.5c0.8-0.6,1.3-1.3,1.5-2.3c0.4-2.3-0.8-5.9-3.9-11.9l-71.4-139
		C151.8,10.4,149.3,7.2,147.1,8.6z"/>
	<path class="st4" d="M123.2,222.2c0.1,0.2,0.2,0.4,0.3,0.6c-0.1-0.2-0.2-0.3-0.4-0.5L20.8,89.6c-5.9-7.6-9.1-9.8-12-8.2
		C5.9,83,6.2,87,9.9,95.8l48.2,117c0,0,1.4,3.5,3.9,2.8c2.5-0.7,1.4-4.9,1.4-4.9l-48.2-117c-0.6-1.4-1-2.5-1.3-3.5
		c0.7,0.8,1.5,1.7,2.4,2.9l102.3,132.7c6,7.8,9,9.9,11.8,8.3c2.7-1.6,2.3-5.2-1.8-14.2l-28-61.1c-3.1-1.4-6-3.1-8.7-5.1L123.2,222.2
		z"/>
	<path class="st4" d="M76,105.5L49.4,47.6L82.7,92c1.2-1.6,2.4-3.1,3.8-4.5l-33.1-44c-6-8-8.8-10.1-11.6-8.5
		c-2.7,1.6-2.3,5.1,1.9,14.2l30.4,66.2c0.1-1.6,0.3-3.3,0.6-4.9C75.1,108.7,75.5,107.1,76,105.5z"/>
	<path class="st4" d="M172.9,202.4l-33.8-45c-1.7,0.9-3.5,1.7-5.4,2.4l35.3,47.1c6,8,8.8,10.1,11.6,8.5c2.7-1.6,2.2-5.1-2-14.2
		L153,145.8c-1.3,1.6-2.7,3.2-4.2,4.6L172.9,202.4z"/>
</g>
</svg>
