<?xml version="1.0" encoding="utf-8"?>
<!-- Generator: Adobe Illustrator 22.1.0, SVG Export Plug-In . SVG Version: 6.00 Build 0)  -->
<svg version="1.1" id="Layer_1" xmlns="http://www.w3.org/2000/svg" xmlns:xlink="http://www.w3.org/1999/xlink" x="0px" y="0px"
	 viewBox="0 0 236.6 236.6" style="enable-background:new 0 0 236.6 236.6;" xml:space="preserve">
<style type="text/css">
	.st0{fill:#F9CC8A;}
	.st1{fill:#F2655A;}
	.st2{fill:#C0E5E0;}
	.st3{fill:#FFFFFF;}
	.st4{fill:#8B5E3C;}
	.st5{fill:#FBD015;}
	.st6{fill:#F69D98;}
	.st7{fill:none;}
</style>
<path class="st4" d="M118.3,0C53,0,0,53,0,118.3s53,118.3,118.3,118.3s118.3-53,118.3-118.3S183.6,0,118.3,0z M118.3,162.6
	c-24.5,0-44.3-19.8-44.3-44.3S93.8,74,118.3,74s44.3,19.8,44.3,44.3C162.6,142.7,142.8,162.6,118.3,162.6z"/>
<g>
	<path class="st2" d="M117.2,10c-27.7,1.1-53.1,17.4-72.7,37.1C25,67.2,11.2,90.7,9,118c-2.1,28.2,8.3,55.5,27.9,74.6
		c19.5,19.4,48.3,30.7,80.3,33.9s60.8-9.9,80.3-29.6c19.6-20.1,30.1-46.7,27.9-78.3c-2.1-32.5-16-63.3-35.5-82.3
		C170.3,16.7,145,8.9,117.2,10z M117.7,164.7C88.8,166,66.2,146.9,67.2,122c1-24.7,23.6-47.5,50.5-50.8
		c26.9-3.4,49.5,15.9,50.5,42.8C169.1,140.7,146.6,163.4,117.7,164.7z"/>
</g>
<g>
	<path class="st7" d="M92,154c-3.2-2.4-6.1-5.2-8.6-8.4L45,186.8L92,154z"/>
	<path class="st7" d="M123.4,74.3c5.2,0.6,10,2.1,14.5,4.3L175.7,38L123.4,74.3z"/>
	<path class="st1" d="M231.3,127.3c-1.7-1.8-4.7,0.5-4.7,0.5l-124,94.7c-0.6,0.4-1.1,0.8-1.6,1.2c0.4-0.5,0.8-1,1.2-1.6L211.6,86
		c5.9-7.4,7.4-11.2,5.1-13.7c-2.3-2.4-6.2-1.3-13.9,4.1l-42,29.4c0.6,2,1,4,1.3,6.1L206,81.2c1.6-1.1,2.9-1.9,3.9-2.5
		c-0.7,1-1.6,2.2-2.8,3.7L97.8,218.5c-6.1,7.6-7.5,11.1-5.2,13.4c0.7,0.7,1.5,1.1,2.5,1.1c2.3,0,5.6-1.9,11-6l124.3-94.9
		C230.3,132.2,233.1,129.2,231.3,127.3z"/>
	<path class="st1" d="M16.8,141.4c-0.2,0.1-0.3,0.2-0.5,0.3c0.1-0.1,0.3-0.3,0.4-0.5L129.3,17.1c6.5-7.1,8.1-10.7,5.9-13.2
		c-2.1-2.5-5.9-1.5-14,3.6L14.6,75.6c0,0-3.2,2-2,4.4c1.2,2.3,5.1,0.5,5.1,0.5l106.7-68.1c1.2-0.8,2.3-1.4,3.2-1.9
		c-0.7,0.8-1.5,1.7-2.5,2.8L12.5,137.4c-6.6,7.3-8.2,10.6-6.1,13c2.1,2.4,5.6,1.3,13.7-4.3l55.2-38.4c0.8-3.3,2-6.5,3.5-9.4
		L16.8,141.4z"/>
	<path class="st1" d="M123.4,74.3l52.3-36.4l-37.8,40.6c1.8,0.9,3.5,1.9,5.1,3l37.5-40.3c6.8-7.3,8.4-10.5,6.3-12.9
		c-2.1-2.4-5.4-1.3-13.6,4.4l-59.8,41.6c1.6-0.2,3.3-0.3,4.9-0.3C120.1,74,121.8,74.1,123.4,74.3z"/>
	<path class="st1" d="M45.1,186.8l38.4-41.2c-1.2-1.5-2.3-3.2-3.3-4.9l-40.1,43.1c-6.8,7.3-8.4,10.5-6.3,12.9
		c2.1,2.4,5.4,1.3,13.6-4.4l50-35c-1.8-1-3.6-2.1-5.3-3.3L45.1,186.8z"/>
</g>
</svg>
