<?xml version="1.0" encoding="utf-8"?>
<!-- Generator: Adobe Illustrator 22.1.0, SVG Export Plug-In . SVG Version: 6.00 Build 0)  -->
<svg version="1.1" id="Layer_1" xmlns="http://www.w3.org/2000/svg" xmlns:xlink="http://www.w3.org/1999/xlink" x="0px" y="0px"
	 viewBox="0 0 236.6 236.6" style="enable-background:new 0 0 236.6 236.6;" xml:space="preserve">
<style type="text/css">
	.st0{fill:#F9CC8A;}
	.st1{fill:#F2655A;}
	.st2{fill:#C0E5E0;}
	.st3{fill:#FFFFFF;}
	.st4{fill:#8B5E3C;}
	.st5{fill:#FBD015;}
	.st6{fill:#F69D98;}
	.st7{fill:none;}
</style>
<path class="st0" d="M205.7,38.6c-44-48.3-118.8-51.7-167.1-7.7S-13.1,149.7,30.9,198c44,48.3,118.8,51.7,167.1,7.7
	S249.7,86.9,205.7,38.6z"/>
<g>
	<path class="st4" d="M196.4,48.5c-19-19.3-47.5-26.8-74.6-28c-27.4-0.8-53.4,4.7-74.6,21.2C25.4,58.8,12.5,84.2,11.6,111
		c-1.2,26.9,9.5,55,28.2,80.2s47.1,37.2,74.2,38.3c27.4,0.9,53.5-9.2,75-31.5c22.1-22.9,35.3-53.2,36.2-79.8
		C226.5,91.1,215.4,67.7,196.4,48.5z"/>
</g>
<path class="st2" d="M193.8,89.2c-4,3.3-8.1,6.6-12.1,9.9c-3,2.4,0.9,6.9,3.9,4.5c4-3.3,8.1-6.6,12.1-9.9
	C200.6,91.3,196.7,86.8,193.8,89.2L193.8,89.2z"/>
<path class="st2" d="M125.6,193c-2.1-4.8-4.2-9.5-6.4-14.3c-1.6-3.5-6.9-0.9-5.4,2.6c2.1,4.8,4.2,9.5,6.4,14.3
	C121.8,199.1,127.2,196.5,125.6,193L125.6,193z"/>
<path class="st2" d="M168.2,86.7c-4.7-2.3-9.3-4.7-14-7c-3.4-1.7-5.9,3.7-2.5,5.4c4.7,2.3,9.3,4.7,14,7
	C169.1,93.9,171.6,88.5,168.2,86.7L168.2,86.7z"/>
<path class="st2" d="M96.3,40.1c-4.8,2.1-9.5,4.2-14.3,6.3c-3.5,1.5-0.9,6.9,2.6,5.4c4.8-2.1,9.5-4.2,14.3-6.3
	C102.3,44,99.8,38.6,96.3,40.1L96.3,40.1z"/>
<path class="st2" d="M53.1,85.5c-4,3.3-8.1,6.6-12.1,9.9c-3,2.4,0.9,6.9,3.9,4.5c4-3.3,8.1-6.6,12.1-9.9
	C60,87.6,56.1,83.1,53.1,85.5L53.1,85.5z"/>
<path class="st2" d="M48.7,158.7c0.8,5.1,1.7,10.3,2.5,15.4c0.6,3.8,6.5,2.6,5.8-1.1c-0.8-5.1-1.7-10.3-2.5-15.4
	C53.9,153.7,48.1,154.9,48.7,158.7L48.7,158.7z"/>
<path class="st3" d="M185.3,63c-1.8,4.9-3.6,9.8-5.4,14.7c-1.3,3.6,4.3,5.5,5.7,1.9c1.8-4.9,3.6-9.8,5.4-14.7
	C192.3,61.3,186.7,59.4,185.3,63L185.3,63z"/>
<path class="st3" d="M87,172.8c1.2,5.1,2.4,10.1,3.6,15.2c0.9,3.7,6.6,2.2,5.7-1.6c-1.2-5.1-2.4-10.1-3.6-15.2
	C91.9,167.5,86.1,169.1,87,172.8L87,172.8z"/>
<path class="st3" d="M122.7,56.6c1.5,5,3,10,4.5,15c1.1,3.7,6.8,1.8,5.6-1.9c-1.5-5-3-10-4.5-15C127.2,51.1,121.6,53,122.7,56.6
	L122.7,56.6z"/>
<path class="st3" d="M42.6,133.9c-4.9,1.9-9.7,3.8-14.6,5.7c-3.6,1.4-1.2,6.9,2.4,5.5c4.9-1.9,9.7-3.8,14.6-5.7
	C48.5,138,46.2,132.5,42.6,133.9L42.6,133.9z"/>
<path class="st3" d="M202.8,153.5c-4.9-1.8-9.8-3.5-14.7-5.3c-3.6-1.3-5.4,4.4-1.8,5.7c4.9,1.8,9.8,3.5,14.7,5.3
	C204.6,160.5,206.4,154.8,202.8,153.5L202.8,153.5z"/>
<path class="st3" d="M151.9,195.4c-4.7,2.3-9.3,4.7-14,7c-3.4,1.7-0.6,7,2.8,5.2c4.7-2.3,9.3-4.7,14-7
	C158.2,198.9,155.3,193.7,151.9,195.4L151.9,195.4z"/>
<path class="st6" d="M169.7,123.8c3.1,4.2,6.2,8.4,9.3,12.6c2.3,3.1,7-0.6,4.7-3.7c-3.1-4.2-6.2-8.4-9.3-12.6
	C172.1,117,167.4,120.7,169.7,123.8L169.7,123.8z"/>
<path class="st6" d="M54.1,110.4c3.1,4.2,6.1,8.4,9.2,12.6c2.3,3.1,7-0.6,4.7-3.7c-3.1-4.2-6.1-8.4-9.2-12.6
	C56.5,103.7,51.8,107.3,54.1,110.4L54.1,110.4z"/>
<path class="st6" d="M139.3,34.1c-0.8,5.1-1.6,10.3-2.5,15.4c-0.6,3.8,5.3,4.5,5.9,0.7c0.8-5.1,1.6-10.3,2.5-15.4
	C145.8,31.1,139.9,30.3,139.3,34.1L139.3,34.1z"/>
<path class="st6" d="M81.3,74.2c5.2-0.3,10.4-0.6,15.6-0.9c3.8-0.2,3.3-6.1-0.5-5.9C91.2,67.7,86,68,80.8,68.3
	C76.9,68.5,77.5,74.5,81.3,74.2L81.3,74.2z"/>
<path class="st6" d="M67.3,176.4c-2.7,4.4-5.4,8.9-8.2,13.3c-2,3.3,3.2,6.2,5.2,2.9c2.7-4.4,5.4-8.9,8.2-13.3
	C74.5,176.1,69.3,173.1,67.3,176.4L67.3,176.4z"/>
<path class="st5" d="M188.4,122.3c3.6,3.8,7.2,7.5,10.8,11.3c2.7,2.8,6.8-1.5,4.2-4.3c-3.6-3.8-7.2-7.5-10.8-11.3
	C189.9,115.2,185.7,119.5,188.4,122.3L188.4,122.3z"/>
<path class="st5" d="M62.2,146.2c2.1,4.8,4.3,9.5,6.4,14.3c1.6,3.5,6.9,0.9,5.3-2.6c-2.1-4.8-4.3-9.5-6.4-14.3
	C66,140.1,60.6,142.7,62.2,146.2L62.2,146.2z"/>
<path class="st5" d="M83.7,200c0,5.2,0.1,10.4,0.1,15.6c0,3.8,6,3.6,5.9-0.2c0-5.2-0.1-10.4-0.1-15.6
	C89.6,195.9,83.7,196.2,83.7,200L83.7,200z"/>
<path class="st5" d="M55.8,59.5c2.1,4.8,4.3,9.5,6.4,14.3c1.6,3.5,6.9,0.9,5.3-2.6c-2.1-4.8-4.3-9.5-6.4-14.3
	C59.6,53.4,54.2,56,55.8,59.5L55.8,59.5z"/>
<path class="st3" d="M75.9,84.6c-4.2,3.1-8.3,6.3-12.5,9.4c-3.1,2.3,0.7,6.9,3.7,4.6c4.2-3.1,8.3-6.3,12.5-9.4
	C82.7,86.9,79,82.3,75.9,84.6L75.9,84.6z"/>
<path class="st5" d="M152.3,64.2c4.9,1.9,9.7,3.8,14.6,5.6c3.6,1.4,5.5-4.2,2-5.6c-4.9-1.9-9.7-3.8-14.6-5.6
	C150.7,57.2,148.8,62.8,152.3,64.2L152.3,64.2z"/>
<path class="st5" d="M111,33.7c-1.6,5-3.1,10-4.7,14.9c-1.1,3.7,4.6,5.3,5.7,1.6c1.6-5,3.1-10,4.7-14.9
	C117.9,31.6,112.1,30,111,33.7L111,33.7z"/>
<path class="st5" d="M27.7,106.6c1.7,4.9,3.5,9.8,5.2,14.7c1.3,3.6,6.8,1.4,5.5-2.2c-1.7-4.9-3.5-9.8-5.2-14.7
	C31.9,100.9,26.4,103,27.7,106.6L27.7,106.6z"/>
<path class="st6" d="M104.1,202.7c3.6,3.8,7.1,7.6,10.7,11.4c2.6,2.8,6.8-1.4,4.2-4.2c-3.6-3.8-7.1-7.6-10.7-11.4
	C105.7,195.7,101.5,199.9,104.1,202.7L104.1,202.7z"/>
<path class="st5" d="M176.5,183.5c-4,3.3-8,6.7-12,10c-2.9,2.5,1,6.9,4,4.4c4-3.3,8-6.7,12-10C183.4,185.5,179.4,181,176.5,183.5
	L176.5,183.5z"/>
<path class="st6" d="M151.2,177.7c-5.2-0.4-10.4-0.7-15.6-1.1c-3.8-0.3-4.1,5.7-0.2,5.9c5.2,0.4,10.4,0.7,15.6,1.1
	C154.8,183.9,155,177.9,151.2,177.7L151.2,177.7z"/>
<path class="st2" d="M166.9,153.7c-1.8,4.9-3.7,9.8-5.5,14.6c-1.4,3.6,4.3,5.5,5.6,1.9c1.8-4.9,3.7-9.8,5.5-14.6
	C173.9,152,168.3,150.1,166.9,153.7L166.9,153.7z"/>
<path class="st2" d="M166.9,153.7c-1.8,4.9-3.7,9.8-5.5,14.6c-1.4,3.6,4.3,5.5,5.6,1.9c1.8-4.9,3.7-9.8,5.5-14.6
	C173.9,152,168.3,150.1,166.9,153.7L166.9,153.7z"/>
<path class="st5" d="M107.2,84.4c5,1.6,9.9,3.2,14.9,4.8c3.6,1.2,5.3-4.5,1.7-5.7c-5-1.6-9.9-3.2-14.9-4.8
	C105.2,77.5,103.5,83.2,107.2,84.4L107.2,84.4z"/>
<path class="st2" d="M86.9,98.3c-1.8,4.9-3.7,9.8-5.5,14.6c-1.4,3.6,4.3,5.5,5.6,1.9c1.8-4.9,3.7-9.8,5.5-14.6
	C93.8,96.7,88.2,94.7,86.9,98.3L86.9,98.3z"/>
<path class="st6" d="M78.7,143.7c5,1.4,10,2.8,15.1,4.2c3.7,1,5.1-4.8,1.4-5.8c-5-1.4-10-2.8-15.1-4.2
	C76.4,136.9,75,142.7,78.7,143.7L78.7,143.7z"/>
<path class="st3" d="M151.4,95.2c-4.9,1.9-9.7,3.8-14.6,5.7c-3.6,1.4-1.2,6.9,2.4,5.5c4.9-1.9,9.7-3.8,14.6-5.7
	C157.3,99.2,154.9,93.8,151.4,95.2L151.4,95.2z"/>
<path class="st3" d="M99.1,126.1c3.2,4.1,6.4,8.2,9.6,12.3c2.4,3,6.9-0.8,4.6-3.8c-3.2-4.1-6.4-8.2-9.6-12.3
	C101.3,119.3,96.7,123.1,99.1,126.1L99.1,126.1z"/>
<path class="st6" d="M116.2,104.4c0.4,5.2,0.8,10.4,1.3,15.6c0.3,3.8,6.2,3.1,5.9-0.7c-0.4-5.2-0.8-10.4-1.3-15.6
	C121.8,100,115.9,100.6,116.2,104.4L116.2,104.4z"/>
<path class="st2" d="M115.6,151.1c-4,3.3-8.1,6.6-12.1,9.9c-3,2.4,0.9,6.9,3.9,4.5c4-3.3,8.1-6.6,12.1-9.9
	C122.5,153.2,118.6,148.7,115.6,151.1L115.6,151.1z"/>
<path class="st5" d="M134.3,150.3c2.1,4.8,4.3,9.5,6.4,14.3c1.6,3.5,6.9,0.9,5.3-2.6c-2.1-4.8-4.3-9.5-6.4-14.3
	C138,144.2,132.7,146.8,134.3,150.3L134.3,150.3z"/>
<path class="st5" d="M154.7,110.9c-3,4.3-6,8.6-8.9,12.8c-2.2,3.1,2.8,6.4,5,3.2c3-4.3,6-8.6,8.9-12.8
	C161.9,111,156.9,107.8,154.7,110.9L154.7,110.9z"/>
</svg>
