<?xml version="1.0" encoding="utf-8"?>
<!-- Generator: Adobe Illustrator 22.1.0, SVG Export Plug-In . SVG Version: 6.00 Build 0)  -->
<svg version="1.1" id="Layer_1" xmlns="http://www.w3.org/2000/svg" xmlns:xlink="http://www.w3.org/1999/xlink" x="0px" y="0px"
	 viewBox="0 0 236.6 236.6" style="enable-background:new 0 0 236.6 236.6;" xml:space="preserve">
<style type="text/css">
	.st0{fill:#F9CC8A;}
	.st1{fill:#F2655A;}
	.st2{fill:#C0E5E0;}
	.st3{fill:#FFFFFF;}
	.st4{fill:#8B5E3C;}
	.st5{fill:#FBD015;}
	.st6{fill:#F69D98;}
	.st7{fill:none;}
</style>
<path class="st4" d="M118.3,0C53,0,0,53,0,118.3s53,118.3,118.3,118.3s118.3-53.1,118.3-118.4S183.7,0,118.3,0z M118.3,162.5
	c-24.5,0-44.3-19.8-44.3-44.3s19.8-44.3,44.3-44.3s44.3,19.8,44.3,44.3C162.6,142.7,142.8,162.5,118.3,162.5z"/>
<g>
	<path class="st6" d="M10.6,99.7c-3.8,27.5,7.8,55.3,23.7,78.1c16.4,22.8,37,40.5,63.5,47.4c27.4,7.1,56.1,1.6,78.4-14.3
		c22.6-15.8,38.7-42.1,47.5-73.1s1-61.6-15-84.3c-16.3-22.9-40.7-37.8-72.2-41.3c-32.3-3.6-65.1,4.5-87.3,20.4
		C26.5,48.6,14.4,72.2,10.6,99.7z M162.9,126.5c-3.8,28.7-26.6,47.5-50.9,42.2c-24.2-5.3-42.5-31.6-41.1-58.6s24.3-45.9,51-42.1
		C148.4,71.6,166.7,97.9,162.9,126.5z"/>
</g>
<path class="st1" d="M111.3,61c-3.2,0-9.1-8.1-9.1-11.7c0-3.6,3.1-6.6,5.3-6.6s4,5.1,4,5.1s1.6-5.4,4.1-5.4s4.8,1.7,4.8,5.8
	C120.4,52.3,114.4,61,111.3,61z"/>
<path class="st1" d="M190.8,105.2c-1,3-10.6,6.1-14,4.9c-3.4-1.1-5.2-5-4.5-7.1s6.1-2.2,6.1-2.2s-4.6-3.2-3.8-5.6
	c0.8-2.4,3.2-4,7-2.7C185.5,93.8,191.8,102.2,190.8,105.2z"/>
<path class="st1" d="M201.4,132.1c-2.7-1.6-3.8-11.6-2-14.7c1.8-3.1,6-4.1,7.9-3s0.9,6.4,0.9,6.4s4.1-3.8,6.3-2.6
	c2.2,1.3,3.3,3.9,1.3,7.4C213.6,129.2,204.1,133.7,201.4,132.1z"/>
<path class="st1" d="M170.4,46.4c-3,1-11.2-4.9-12.3-8.4c-1.1-3.4,0.9-7.2,3.1-7.9c2.1-0.7,5.4,3.6,5.4,3.6s-0.1-5.6,2.3-6.4
	c2.4-0.8,5.1,0.2,6.4,4C176.5,35.4,173.5,45.5,170.4,46.4z"/>
<path class="st1" d="M155,70.9c-0.3-3.2,7.1-10,10.7-10.4s6.8,2.4,7.1,4.6s-4.7,4.5-4.7,4.5s5.5,1,5.8,3.5s-1.2,5-5.2,5.4
	C164.6,79.1,155.4,74.1,155,70.9z"/>
<path class="st1" d="M193.8,65.9c2.5-2,12.2,0.7,14.5,3.5c2.2,2.8,1.7,7-0.1,8.5c-1.8,1.4-6.3-1.5-6.3-1.5s2.1,5.2,0.1,6.8
	s-4.8,1.7-7.4-1.5C192.1,78.4,191.3,67.9,193.8,65.9z"/>
<path class="st1" d="M177.9,164.8c2.9-1.2,11.5,4.1,12.9,7.4s-0.4,7.2-2.5,8.1c-2.1,0.8-5.6-3.2-5.6-3.2s0.5,5.6-1.8,6.5
	c-2.3,1-5.1,0.2-6.6-3.6C172.7,176.2,175,166,177.9,164.8z"/>
<path class="st1" d="M191.5,139.2c0.6,3.1-6.4,10.5-9.9,11.1s-7-1.9-7.4-4.1c-0.4-2.2,4.3-4.8,4.3-4.8s-5.6-0.6-6-3.1
	c-0.5-2.5,0.8-5.1,4.8-5.8C181.4,131.8,191,136.1,191.5,139.2z"/>
<path class="st1" d="M119.3,203.5c2.7,1.7,3.5,11.7,1.6,14.8s-6.1,4-8,2.8s-0.7-6.4-0.7-6.4s-4.2,3.7-6.3,2.4
	c-2.2-1.3-3.2-4-1.1-7.5C106.9,206.1,116.6,201.9,119.3,203.5z"/>
<path class="st1" d="M165.4,211.2c-2.2,2.3-12.2,1.1-14.8-1.4c-2.6-2.5-2.7-6.7-1.1-8.4c1.5-1.6,6.4,0.6,6.4,0.6s-2.8-4.9-1.1-6.7
	c1.7-1.8,4.6-2.3,7.5,0.5S167.6,208.9,165.4,211.2z"/>
<path class="st1" d="M146.1,188c-3.1-0.6-7.4-9.7-6.8-13.2c0.7-3.5,4.3-5.9,6.5-5.4c2.2,0.4,2.9,5.8,2.9,5.8s2.6-5,5.1-4.5
	s4.4,2.6,3.6,6.6C156.7,181.2,149.3,188.6,146.1,188z"/>
<path class="st1" d="M70.2,186.8c-1,3-10.6,6.1-14,4.9s-5.2-5-4.5-7.1s6.1-2.2,6.1-2.2s-4.6-3.2-3.8-5.6s3.2-4,7-2.7
	C64.9,175.4,71.2,183.8,70.2,186.8z"/>
<path class="st1" d="M100.4,193.5c-2.7-1.6-3.8-11.6-2-14.7c1.8-3.1,6-4.1,7.9-3s0.9,6.4,0.9,6.4s4.1-3.8,6.3-2.6
	c2.2,1.3,3.3,3.9,1.3,7.4C112.7,190.6,103.2,195.1,100.4,193.5z"/>
<path class="st1" d="M54.8,117.1c-3,1-11.2-4.9-12.3-8.4c-1.1-3.4,0.9-7.2,3.1-7.9c2.1-0.7,5.4,3.6,5.4,3.6s-0.1-5.6,2.3-6.4
	c2.4-0.8,5.1,0.2,6.4,4S57.8,116.1,54.8,117.1z"/>
<path class="st1" d="M21.3,141.5c-0.3-3.2,7.1-10,10.7-10.4s6.8,2.4,7.1,4.6s-4.7,4.5-4.7,4.5s5.5,1,5.8,3.5s-1.2,5-5.2,5.4
	S21.7,144.7,21.3,141.5z"/>
<path class="st1" d="M55.6,140.5c2.5-2,12.2,0.7,14.5,3.5c2.2,2.8,1.7,7-0.1,8.5c-1.8,1.4-6.3-1.5-6.3-1.5s2.1,5.2,0.1,6.8
	s-4.8,1.7-7.4-1.5C53.9,153,53.1,142.4,55.6,140.5z"/>
<path class="st1" d="M40.1,92c-1,3-10.6,6.1-14,4.9c-3.4-1.1-5.2-5-4.5-7.1s6.1-2.2,6.1-2.2s-4.6-3.2-3.8-5.6c0.8-2.4,3.2-4,7-2.7
	C34.7,80.5,41.1,88.9,40.1,92z"/>
<path class="st1" d="M69.4,79.3c-2.7-1.6-3.8-11.6-2-14.7c1.8-3.1,6-4.1,7.9-3s0.9,6.4,0.9,6.4s4.1-3.8,6.3-2.6
	c2.2,1.3,3.3,3.9,1.3,7.4C81.6,76.4,72.1,80.9,69.4,79.3z"/>
<path class="st1" d="M50.2,68.4c-3,1-11.2-4.9-12.3-8.4c-1.1-3.4,0.9-7.2,3.1-7.9s5.4,3.6,5.4,3.6s-0.1-5.6,2.3-6.4
	c2.4-0.8,5.1,0.2,6.4,4C56.2,57.3,53.2,67.4,50.2,68.4z"/>
<path class="st1" d="M78.6,29.9c-0.3-3.2,7.1-10,10.7-10.4s6.8,2.4,7.1,4.6s-4.7,4.5-4.7,4.5s5.5,1,5.8,3.5s-1.2,5-5.2,5.4
	C88.2,38,78.9,33,78.6,29.9z"/>
<path class="st1" d="M135.8,39.9c2.5-2,12.2,0.7,14.5,3.5c2.2,2.8,1.7,7-0.1,8.5c-1.8,1.4-6.3-1.5-6.3-1.5s2.1,5.2,0.1,6.8
	s-4.8,1.7-7.4-1.5C134.1,52.4,133.3,41.9,135.8,39.9z"/>
</svg>
