<?xml version="1.0" encoding="utf-8"?>
<!-- Generator: Adobe Illustrator 22.1.0, SVG Export Plug-In . SVG Version: 6.00 Build 0)  -->
<svg version="1.1" id="Layer_1" xmlns="http://www.w3.org/2000/svg" xmlns:xlink="http://www.w3.org/1999/xlink" x="0px" y="0px"
	 viewBox="0 0 236.6 236.6" style="enable-background:new 0 0 236.6 236.6;" xml:space="preserve">
<style type="text/css">
	.st0{fill:#F9CC8A;}
	.st1{fill:#F2655A;}
	.st2{fill:#C0E5E0;}
	.st3{fill:#FFFFFF;}
	.st4{fill:#8B5E3C;}
	.st5{fill:#FBD015;}
	.st6{fill:#F69D98;}
	.st7{fill:none;}
</style>
<path class="st0" d="M118.3,0C53,0,0,53,0,118.3s53,118.3,118.3,118.3s118.3-53,118.3-118.3S183.6,0,118.3,0z M117.4,163.9
	c-24.5,0-44.3-19.8-44.3-44.3s19.8-44.3,44.3-44.3s44.3,19.8,44.3,44.3S141.8,163.9,117.4,163.9z"/>
<path class="st1" d="M212.9,144.4c0.8-9.7,14.3-12.5,13.1-29.7c-1.2-17.2-13.6-15.4-16.7-24c-3.1-8.5,7.1-14,0.9-25.2
	c-6.2-11.2-13.3-4.5-20.5-11.9s-4-22-15-28.6s-18.2,6.7-30.2,3.2s-6.8-17.1-20.2-18s-19,10.8-30.7,16S66.3,6.3,55.9,29.3
	s-5.6,21-12.1,28.9c-6.4,7.9-21.3-1.8-27.1,8s3.6,20.5,3.3,28.3c-0.3,7.8-15.1,19-13.9,28.3c1.1,9.3,13.2,10.6,16,18.4
	c2.8,7.7-4.9,21.4,1.2,33.2s16.7,4.1,25.1,11.3s-4.7,19.3,8.3,26.1c13,6.7,26.3-0.5,34.3,1.9c8,2.5,17.6,16.7,33.3,15.6
	c15.6-1.1,11.7-12.7,19.9-17.5s16.9,5.6,27.7,2.4c10.8-3.2,10.8-21.3,16-26.3c5.2-5.1,27-12,30-21
	C220.8,157.8,212.1,154.1,212.9,144.4z M153,146c-14.5,19.7-42.3,23.9-61.9,9.3c-19.7-14.5-23.9-42.3-9.3-61.9
	c14.5-19.7,42.3-23.9,61.9-9.3C163.4,98.6,167.6,126.3,153,146z"/>
<path class="st2" d="M93.1,37.4c2.5,4.7,5.1,9.3,7.6,14c1.9,3.4,7.1,0.4,5.2-3.1c-2.5-4.7-5.1-9.3-7.6-14
	C96.5,30.9,91.3,33.9,93.1,37.4L93.1,37.4z"/>
<path class="st2" d="M184.2,125.4c-5.2,1.2-10.4,2.4-15.5,3.7c-3.8,0.9-2.2,6.8,1.6,5.9c5.2-1.2,10.4-2.4,15.5-3.7
	C189.6,130.4,188,124.5,184.2,125.4L184.2,125.4z"/>
<path class="st2" d="M91.6,60.7c-3.2,4.2-6.5,8.4-9.7,12.6c-2.4,3.1,2.5,6.6,4.9,3.5c3.2-4.2,6.5-8.4,9.7-12.6
	C98.9,61.1,93.9,57.6,91.6,60.7L91.6,60.7z"/>
<path class="st2" d="M31.1,123.9c1.2,5.2,2.4,10.4,3.6,15.5c0.9,3.8,6.8,2.3,5.9-1.6c-1.2-5.2-2.4-10.4-3.6-15.5
	C36.1,118.5,30.3,120.1,31.1,123.9L31.1,123.9z"/>
<path class="st2" d="M68.4,175.8c2.5,4.7,5.1,9.3,7.6,14c1.9,3.4,7.1,0.4,5.2-3.1c-2.5-4.7-5.1-9.3-7.6-14
	C71.8,169.3,66.6,172.3,68.4,175.8L68.4,175.8z"/>
<path class="st2" d="M135.1,196c5.3,0.1,10.6,0.3,15.9,0.4c3.9,0.1,3.9-6,0-6.1c-5.3-0.1-10.6-0.3-15.9-0.4
	C131.2,189.8,131.2,195.9,135.1,196L135.1,196z"/>
<path class="st3" d="M71,38.3c4.6,2.7,9.1,5.4,13.7,8.2c3.4,2,6.3-3.3,2.9-5.3c-4.6-2.7-9.1-5.4-13.7-8.2C70.6,31,67.7,36.3,71,38.3
	L71,38.3z"/>
<path class="st3" d="M156.6,159.7c5.3-0.2,10.6-0.5,15.9-0.7c3.9-0.2,3.4-6.2-0.5-6.1c-5.3,0.2-10.6,0.5-15.9,0.7
	C152.2,153.8,152.7,159.8,156.6,159.7L156.6,159.7z"/>
<path class="st3" d="M52.7,99.9c5.3-0.6,10.6-1.1,15.9-1.7c3.9-0.4,3-6.4-0.8-6c-5.3,0.6-10.6,1.1-15.9,1.7
	C48,94.3,48.8,100.3,52.7,99.9L52.7,99.9z"/>
<path class="st3" d="M109.2,196.8c1,5.2,2,10.5,3,15.7c0.7,3.8,6.7,2.5,5.9-1.3c-1-5.2-2-10.5-3-15.7
	C114.4,191.6,108.4,192.9,109.2,196.8L109.2,196.8z"/>
<path class="st3" d="M161.9,34.7c-2.7,4.6-5.4,9.2-8.1,13.8c-2,3.4,3.4,6.3,5.3,2.9c2.7-4.6,5.4-9.2,8.1-13.8
	C169.2,34.3,163.9,31.4,161.9,34.7L161.9,34.7z"/>
<path class="st3" d="M191.6,98.9c1.5,5.1,2.9,10.2,4.4,15.3c1.1,3.8,6.9,1.9,5.8-1.8c-1.5-5.1-2.9-10.2-4.4-15.3
	C196.3,93.3,190.6,95.2,191.6,98.9L191.6,98.9z"/>
<path class="st4" d="M123.2,67.5c4.8-2.3,9.6-4.6,14.4-6.9c3.5-1.7,0.7-7.1-2.8-5.4c-4.8,2.3-9.6,4.6-14.4,6.9
	C116.9,63.8,119.7,69.2,123.2,67.5L123.2,67.5z"/>
<path class="st4" d="M87.8,180.8c4.8-2.3,9.6-4.5,14.4-6.8c3.5-1.7,0.8-7.1-2.8-5.4c-4.8,2.3-9.6,4.5-14.4,6.8
	C81.5,177,84.3,182.4,87.8,180.8L87.8,180.8z"/>
<path class="st4" d="M33.3,79c5,1.8,10,3.6,15,5.4c3.7,1.3,5.6-4.5,1.9-5.8c-5-1.8-10-3.6-15-5.4C31.5,71.9,29.6,77.6,33.3,79
	L33.3,79z"/>
<path class="st4" d="M56.5,144c4-3.5,8.1-6.9,12.1-10.4c3-2.5-1.1-7-4.1-4.5c-4,3.5-8.1,6.9-12.1,10.4
	C49.4,142.1,53.5,146.5,56.5,144L56.5,144z"/>
<path class="st4" d="M156.4,180.1c3.9,3.6,7.9,7.1,11.8,10.7c2.9,2.6,6.8-2,3.9-4.6c-3.9-3.6-7.9-7.1-11.8-10.7
	C157.5,172.8,153.5,177.4,156.4,180.1L156.4,180.1z"/>
<path class="st5" d="M125.2,48.5c4.5-2.9,8.9-5.8,13.4-8.7c3.3-2.1-0.2-7.1-3.5-5c-4.5,2.9-8.9,5.8-13.4,8.7
	C118.5,45.6,122,50.6,125.2,48.5L125.2,48.5z"/>
<path class="st5" d="M125.2,179.5c5.2-1.2,10.3-2.5,15.5-3.7c3.8-0.9,2.2-6.8-1.6-5.9c-5.2,1.2-10.3,2.5-15.5,3.7
	C119.8,174.5,121.4,180.4,125.2,179.5L125.2,179.5z"/>
<path class="st5" d="M183.2,168.2c5.2,0.9,10.5,1.9,15.7,2.8c3.8,0.7,4.7-5.3,0.9-6c-5.2-0.9-10.5-1.9-15.7-2.8
	C180.2,161.5,179.3,167.5,183.2,168.2L183.2,168.2z"/>
<path class="st5" d="M42.8,167.5c5.2-1.2,10.3-2.5,15.5-3.7c3.8-0.9,2.2-6.8-1.6-5.9c-5.2,1.2-10.3,2.5-15.5,3.7
	C37.4,162.6,39,168.4,42.8,167.5L42.8,167.5z"/>
<path class="st3" d="M71.8,152.1c2.4,4.8,4.7,9.5,7.1,14.3c1.7,3.5,7.1,0.6,5.4-2.9c-2.4-4.8-4.7-9.5-7.1-14.3
	C75.4,145.7,70.1,148.6,71.8,152.1L71.8,152.1z"/>
<path class="st5" d="M66,71.6c2.8-4.5,5.6-9,8.4-13.5c2.1-3.3-3.2-6.4-5.3-3c-2.8,4.5-5.6,9-8.4,13.5C58.6,71.9,63.9,75,66,71.6
	L66,71.6z"/>
<path class="st5" d="M27.5,107.3c4.7,2.5,9.4,5,14.1,7.5c3.4,1.8,6.1-3.6,2.7-5.4c-4.7-2.5-9.4-5-14.1-7.5
	C26.7,100,24.1,105.4,27.5,107.3L27.5,107.3z"/>
<path class="st5" d="M78.9,206.5c5.3-0.8,10.5-1.6,15.8-2.4c3.9-0.6,2.8-6.6-1.1-6c-5.3,0.8-10.5,1.6-15.8,2.4
	C74,201.1,75.1,207.1,78.9,206.5L78.9,206.5z"/>
<path class="st4" d="M189.8,148.2c4.5-2.8,9-5.7,13.5-8.5c3.3-2.1-0.1-7.1-3.4-5c-4.5,2.8-9,5.7-13.5,8.5
	C183.1,145.3,186.5,150.3,189.8,148.2L189.8,148.2z"/>
<path class="st5" d="M184.3,72c2.6,4.6,5.2,9.3,7.8,13.9c1.9,3.4,7.1,0.3,5.2-3.1c-2.6-4.6-5.2-9.3-7.8-13.9
	C187.6,65.5,182.4,68.6,184.3,72L184.3,72z"/>
<path class="st4" d="M173.7,96.3c-1.4,5.1-2.7,10.3-4.1,15.4c-1,3.8,4.9,5.1,5.9,1.4c1.4-5.1,2.7-10.3,4.1-15.4
	C180.6,93.9,174.7,92.5,173.7,96.3L173.7,96.3z"/>
<path class="st2" d="M152.6,75.9c4.5,2.8,9.1,5.5,13.6,8.3c3.3,2,6.3-3.2,3-5.3c-4.5-2.8-9.1-5.5-13.6-8.3
	C152.3,68.6,149.3,73.9,152.6,75.9L152.6,75.9z"/>
</svg>
