<?xml version="1.0" encoding="utf-8"?>
<!-- Generator: Adobe Illustrator 22.1.0, SVG Export Plug-In . SVG Version: 6.00 Build 0)  -->
<svg version="1.1" id="Layer_1" xmlns="http://www.w3.org/2000/svg" xmlns:xlink="http://www.w3.org/1999/xlink" x="0px" y="0px"
	 viewBox="0 0 236.5 236.6" style="enable-background:new 0 0 236.5 236.6;" xml:space="preserve">
<style type="text/css">
	.st0{fill:#F9CC8A;}
	.st1{fill:#F2655A;}
	.st2{fill:#C0E5E0;}
	.st3{fill:#FFFFFF;}
	.st4{fill:#8B5E3C;}
	.st5{fill:#FBD015;}
	.st6{fill:#F69D98;}
	.st7{fill:none;}
</style>
<path class="st4" d="M188.5,23.1C135.9-15.7,61.9-4.5,23.1,48S-4.5,174.7,48,213.5s126.6,27.6,165.4-24.9
	C252.2,136,241,61.9,188.5,23.1z M154.4,146.4c-14.5,19.7-42.3,23.9-61.9,9.3c-19.7-14.5-23.9-42.3-9.3-61.9
	c14.5-19.7,42.3-23.9,61.9-9.3C164.8,99,169,126.8,154.4,146.4z"/>
<path class="st2" d="M212.8,150.7c2.5-6.8,19.3-22.4,18.1-31.8s-10.7-9-14.2-18.2c-3.5-9.1,7.5-17.4-0.9-32.4
	c-8.5-15-18.9-8.1-25.4-14.5c-6.5-6.4,0.4-15.7-10-23.2c-10.4-7.5-13.9,1.6-23.6-2S143.7,10.5,131,9.2
	c-12.7-1.3-13.6,13.9-25.9,15.8s-13.5-12.6-26-7.6S66.5,35.3,58.2,45c-8.4,9.7-33.2-6.3-32.7,18.9s4,21.5,1.6,31.5
	c-2.4,9.9-20,7.5-21,18.9s12,17,15.1,24.2c3.1,7.1-5.5,23.6-0.5,31.5s16.5,3.9,22.3,9.8c5.8,5.8,4.8,21.4,15.3,29.5
	c10.6,8.1,16.9-3.5,27.6-0.6s4,19.5,18.7,20s23.5-11.8,31.8-13s23.1,7.5,36.7-0.2c13.7-7.7,5.1-16.5,10.5-24.4s17.6-2.2,26-9.7
	C218,173.8,210.3,157.5,212.8,150.7z M154.5,146.5c-14.5,19.7-42.3,23.9-61.9,9.3c-19.7-14.5-23.9-42.3-9.3-61.9
	c14.5-19.7,42.3-23.9,61.9-9.3C164.8,99.1,169,126.8,154.5,146.5z"/>
<path class="st1" d="M40.1,86.9c5.3,0.7,10.5,1.5,15.8,2.2c3.9,0.5,4.5-5.5,0.6-6c-5.3-0.7-10.5-1.5-15.8-2.2
	C36.8,80.3,36.2,86.4,40.1,86.9L40.1,86.9z"/>
<path class="st1" d="M165,65.9c-2.1,4.9-4.2,9.8-6.3,14.7c-1.5,3.6,4.1,5.8,5.7,2.2c2.1-4.9,4.2-9.8,6.3-14.7
	C172.2,64.5,166.5,62.3,165,65.9L165,65.9z"/>
<path class="st1" d="M55.9,107.7c1.5,5.1,2.9,10.2,4.4,15.3c1.1,3.8,6.9,1.9,5.8-1.9c-1.5-5.1-2.9-10.2-4.4-15.3
	C60.6,102.1,54.9,104,55.9,107.7L55.9,107.7z"/>
<path class="st1" d="M70.9,193.9c4.9,2.1,9.8,4.2,14.6,6.3c3.6,1.6,5.8-4.1,2.2-5.6c-4.9-2.1-9.8-4.2-14.6-6.3
	C69.6,186.7,67.3,192.3,70.9,193.9L70.9,193.9z"/>
<path class="st1" d="M134.8,194.7c5.3,0.7,10.5,1.5,15.8,2.2c3.9,0.5,4.5-5.5,0.6-6c-5.3-0.7-10.5-1.5-15.8-2.2
	C131.6,188.1,130.9,194.2,134.8,194.7L134.8,194.7z"/>
<path class="st1" d="M192.6,147.3c3.3-4.2,6.5-8.4,9.8-12.6c2.4-3.1-2.5-6.7-4.9-3.6c-3.3,4.2-6.5,8.4-9.8,12.6
	C185.3,146.8,190.2,150.4,192.6,147.3L192.6,147.3z"/>
<path class="st3" d="M26.3,111.4c4.9-2.1,9.8-4.1,14.7-6.2c3.6-1.5,1.1-7-2.5-5.5c-4.9,2.1-9.8,4.1-14.7,6.2
	C20.1,107.4,22.7,112.9,26.3,111.4L26.3,111.4z"/>
<path class="st3" d="M176.6,108.8c3-4.4,5.9-8.8,8.9-13.3c2.2-3.2-3-6.5-5.2-3.2c-3,4.4-5.9,8.8-8.9,13.3
	C169.3,108.9,174.5,112.1,176.6,108.8L176.6,108.8z"/>
<path class="st3" d="M65,162.7c2.7-4.6,5.4-9.2,8.1-13.8c2-3.4-3.4-6.3-5.3-2.9c-2.7,4.6-5.4,9.2-8.1,13.8
	C57.7,163.1,63,166,65,162.7L65,162.7z"/>
<path class="st3" d="M178.3,169c4.8,2.3,9.6,4.6,14.4,6.9c3.5,1.7,6-3.9,2.5-5.6c-4.8-2.3-9.6-4.6-14.4-6.9
	C177.3,161.8,174.8,167.3,178.3,169L178.3,169z"/>
<path class="st3" d="M79.3,30.4c2.1,4.9,4.2,9.8,6.3,14.7c1.5,3.6,7,1,5.5-2.6c-2.1-4.9-4.2-9.8-6.3-14.7
	C83.2,24.2,77.7,26.8,79.3,30.4L79.3,30.4z"/>
<path class="st3" d="M148.6,44.6c5,1.9,10,3.7,14.9,5.6c3.7,1.4,5.6-4.4,1.9-5.8c-5-1.9-10-3.7-14.9-5.6
	C146.9,37.4,144.9,43.2,148.6,44.6L148.6,44.6z"/>
<path class="st6" d="M82.6,80.9c1-5.2,2-10.5,3-15.7c0.7-3.8-5.3-4.8-6-0.9c-1,5.2-2,10.5-3,15.7C75.9,83.8,81.9,84.8,82.6,80.9
	L82.6,80.9z"/>
<path class="st6" d="M152.8,176.7c1-5.2,2.1-10.4,3.1-15.7c0.8-3.8-5.2-4.8-6-1c-1,5.2-2.1,10.4-3.1,15.7
	C146,179.6,152,180.6,152.8,176.7L152.8,176.7z"/>
<path class="st6" d="M36.6,165.9c4.4-3,8.8-5.9,13.3-8.9c3.2-2.2-0.3-7.1-3.5-4.9c-4.4,3-8.8,5.9-13.3,8.9
	C29.8,163.1,33.3,168,36.6,165.9L36.6,165.9z"/>
<path class="st6" d="M102.7,185.8c-0.4-5.3-0.8-10.6-1.2-15.9c-0.3-3.9-6.3-3.3-6,0.6c0.4,5.3,0.8,10.6,1.2,15.9
	C96.9,190.3,103,189.7,102.7,185.8L102.7,185.8z"/>
<path class="st6" d="M193,121.1c5.2-1,10.4-2.1,15.6-3.1c3.8-0.8,2.4-6.7-1.4-5.9c-5.2,1-10.4,2.1-15.6,3.1
	C187.8,115.9,189.1,121.8,193,121.1L193,121.1z"/>
<path class="st5" d="M68.5,68c0.3-5.3,0.6-10.6,0.9-15.9c0.2-3.9-5.8-4.1-6.1-0.2c-0.3,5.3-0.6,10.6-0.9,15.9
	C62.2,71.8,68.3,71.9,68.5,68L68.5,68z"/>
<path class="st5" d="M173.9,145.8c2.1-4.9,4.1-9.8,6.2-14.7c1.5-3.6-4.1-5.8-5.7-2.2c-2.1,4.9-4.1,9.8-6.2,14.7
	C166.8,147.3,172.4,149.4,173.9,145.8L173.9,145.8z"/>
<path class="st5" d="M199.3,92.5c3.9-3.6,7.7-7.3,11.6-10.9c2.8-2.7-1.5-7-4.3-4.3c-3.9,3.6-7.7,7.3-11.6,10.9
	C192.1,90.9,196.4,95.1,199.3,92.5L199.3,92.5z"/>
<path class="st5" d="M113.5,210.8c2.1-4.9,4.1-9.8,6.2-14.7c1.5-3.6-4.1-5.8-5.7-2.2c-2.1,4.9-4.1,9.8-6.2,14.7
	C106.3,212.2,111.9,214.4,113.5,210.8L113.5,210.8z"/>
<path class="st3" d="M118.3,178.3c5.2,0.9,10.5,1.9,15.7,2.8c3.8,0.7,4.7-5.3,0.9-6c-5.2-0.9-10.5-1.9-15.7-2.8
	C115.3,171.6,114.4,177.6,118.3,178.3L118.3,178.3z"/>
<path class="st5" d="M50.1,135.2c-2-4.9-3.9-9.9-5.9-14.8c-1.4-3.6-7-1.2-5.6,2.4c2,4.9,3.9,9.9,5.9,14.8
	C45.9,141.3,51.5,138.9,50.1,135.2L50.1,135.2z"/>
<path class="st5" d="M55.9,187.3c4.8-2.3,9.6-4.6,14.4-6.9c3.5-1.7,0.7-7.1-2.8-5.4c-4.8,2.3-9.6,4.6-14.4,6.9
	C49.6,183.6,52.4,189,55.9,187.3L55.9,187.3z"/>
<path class="st5" d="M168.2,199.1c2.5-4.7,4.9-9.4,7.4-14.1c1.8-3.5-3.6-6.1-5.5-2.6c-2.5,4.7-4.9,9.4-7.4,14.1
	C161,199.9,166.4,202.6,168.2,199.1L168.2,199.1z"/>
<path class="st6" d="M187.2,75.3c0.4-5.3,0.8-10.6,1.1-15.9c0.3-3.9-5.8-4.1-6.1-0.2c-0.4,5.3-0.8,10.6-1.1,15.9
	C180.8,79,186.9,79.2,187.2,75.3L187.2,75.3z"/>
<path class="st5" d="M122.6,34.5c5.3,0.7,10.6,1.3,15.8,2c3.9,0.5,4.5-5.6,0.6-6c-5.3-0.7-10.6-1.3-15.8-2
	C119.3,27.9,118.7,34,122.6,34.5L122.6,34.5z"/>
<path class="st6" d="M135.8,57.5c3.3,4.1,6.7,8.3,10,12.4c2.4,3,7.1-0.9,4.6-3.9c-3.3-4.1-6.7-8.3-10-12.4
	C138,50.5,133.3,54.4,135.8,57.5L135.8,57.5z"/>
<path class="st1" d="M106.9,62.3c4.9-2,9.9-4,14.8-6c3.6-1.5,1.2-7-2.5-5.5c-4.9,2-9.9,4-14.8,6C100.8,58.2,103.3,63.8,106.9,62.3
	L106.9,62.3z"/>
</svg>
